<?xml version="1.0" encoding="utf-8"?>
<svg version="1.1" xmlns="http://www.w3.org/2000/svg" xmlns:xlink="http://www.w3.org/1999/xlink" x="0px" y="0px"
	 viewBox="0 0 512 512" style="enable-background:new 0 0 512 512;" xml:space="preserve">
<style type="text/css">
	.st0{display:none;}
	.st1{display:inline;fill:#607D8B;}
	.st2{display:inline;fill:#4CAF50;}
	.st3{display:inline;fill:#03A9F4;}
	.st4{display:inline;fill:none;stroke:#607D8B;stroke-miterlimit:10;}
	.st5{display:inline;}
	.st6{fill:#03A9F4;}
	.st7{display:inline;fill:none;}
	.st8{fill:#607D8B;}
	.st9{display:none;opacity:0.25;}
	.st10{display:inline;fill:none;stroke:#000000;stroke-miterlimit:10;}
</style>
<g id="_x33_" class="st0">
	<ellipse pointer-events="none" class="st1" cx="120.2" cy="391.2" rx="52.1" ry="52.1"/>
	<ellipse pointer-events="none" class="st2" cx="120.2" cy="119.9" rx="52.1" ry="52.1"/>
	<ellipse pointer-events="none" class="st2" cx="392.1" cy="256" rx="52.1" ry="52.1"/>
	<ellipse pointer-events="none" class="st1" cx="392.1" cy="391.2" rx="52.1" ry="52.1"/>
	<rect x="115.4" y="375.6" pointer-events="none" class="st1" width="281.2" height="31.2"/>
	
		<rect x="132.6" y="161" pointer-events="none" transform="matrix(-0.8843 0.4669 -0.4669 -0.8843 597.2867 205.1978)" class="st3" width="281.2" height="31.2"/>
	
		<rect x="121" y="174.3" pointer-events="none" transform="matrix(-0.8972 -0.4416 0.4416 -0.8972 412.4668 475.8768)" class="st2" width="281.2" height="31.2"/>
	<ellipse pointer-events="none" class="st3" cx="120.2" cy="256" rx="52.1" ry="52.1"/>
	<ellipse pointer-events="none" class="st3" cx="401.5" cy="112.4" rx="52.1" ry="52.1"/>
</g>
<g id="_x32_" class="st0">
	<ellipse pointer-events="none" class="st1" cx="122" cy="362" rx="48" ry="48"/>
	<rect x="122" y="346" pointer-events="none" class="st1" width="268" height="32"/>
	<ellipse pointer-events="none" class="st3" cx="122" cy="226" rx="48" ry="48"/>
	<rect x="122" y="210" pointer-events="none" class="st3" width="133.8" height="32"/>
	<rect class="st4" width="512" height="512"/>
	<ellipse pointer-events="none" class="st1" cx="390" cy="362" rx="48" ry="48"/>
	<g class="st5">
		
			<rect x="236.8" y="171.1" pointer-events="none" transform="matrix(-0.866 0.5 -0.5 -0.866 688.657 189.6867)" class="st6" width="164.2" height="32"/>
		<ellipse pointer-events="none" class="st6" cx="390" cy="146.1" rx="48" ry="48"/>
	</g>
	<rect class="st7" width="512" height="512"/>
</g>
<g id="_x31_" class="st0">
	<rect x="249" y="186" pointer-events="none" class="st3" width="147.6" height="31.2"/>
	
		<rect x="85" y="255.1" pointer-events="none" transform="matrix(-0.7071 0.7071 -0.7071 -0.7071 512.0404 329.4319)" class="st3" width="205.5" height="31.2"/>
	<ellipse pointer-events="none" class="st3" cx="120.2" cy="341.6" rx="52.1" ry="52.1"/>
	<ellipse pointer-events="none" class="st3" cx="401.5" cy="202.1" rx="52.1" ry="52.1"/>
</g>
<g id="_x32_.5">
	<path class="st8" d="M390,319c-20.9,0-38.7,13.4-45.3,32H167.3c-6.6-18.6-24.4-32-45.3-32c-26.5,0-48,21.5-48,48
		c0,26.5,21.5,48,48,48c20.9,0,38.7-13.4,45.3-32h177.5c6.6,18.6,24.4,32,45.3,32c26.5,0,48-21.5,48-48C438,340.5,416.5,319,390,319
		z"/>
	<path class="st6" d="M431.6,121.1c-13.3-23-42.6-30.8-65.6-17.6c-18.1,10.4-26.8,30.9-23.2,50.3L247.3,209h-80
		c-6.6-18.6-24.4-32-45.3-32c-26.5,0-48,21.5-48,48s21.5,48,48,48c20.9,0,38.7-13.4,45.3-32h88.6l103-59.4
		c15,12.8,37.1,15.5,55.2,5.1C437,173.4,444.8,144,431.6,121.1z"/>
</g>
<g id="Layer_16" class="st9">
	<path class="st10" d="M-0.2,512.3c0-174.8,141.7-316.4,316.4-316.4c108,0,195.6,87.6,195.6,195.6c0,66.7-54.1,120.9-120.9,120.9
		c-41.2,0-74.7-33.4-74.7-74.7c0-25.5,20.7-46.2,46.2-46.2c15.8,0,28.5,12.8,28.5,28.5c0,9.7-7.9,17.6-17.6,17.6
		c-6,0-10.9-4.9-10.9-10.9c0-3.7,3-6.7,6.7-6.7c2.3,0,4.2,1.9,4.2,4.2"/>
	<path class="st10" d="M512.1,512.1c-174.8,0-316.4-141.7-316.4-316.4c0-108,87.6-195.6,195.6-195.6C457.9,0.1,512,54.2,512,120.9
		c0,41.2-33.4,74.7-74.7,74.7c-25.5,0-46.2-20.7-46.2-46.2c0-15.8,12.8-28.5,28.5-28.5c9.7,0,17.6,7.9,17.6,17.6
		c0,6-4.9,10.9-10.9,10.9c-3.7,0-6.7-3-6.7-6.7c0-2.3,1.9-4.2,4.2-4.2"/>
	<path class="st10" d="M512.1,512.3c0-174.8-141.7-316.4-316.4-316.4c-108,0-195.6,87.6-195.6,195.6c0,66.7,54.1,120.9,120.9,120.9
		c41.2,0,74.7-33.4,74.7-74.7c0-25.5-20.7-46.2-46.2-46.2c-15.8,0-28.5,12.8-28.5,28.5c0,9.7,7.9,17.6,17.6,17.6
		c6,0,10.9-4.9,10.9-10.9c0-3.7-3-6.7-6.7-6.7c-2.3,0-4.2,1.9-4.2,4.2"/>
	<path class="st10" d="M512.2,0c0,174.8-141.7,316.4-316.4,316.4c-108,0-195.6-87.6-195.6-195.6C0.2,54.1,54.3,0,121.1,0
		c41.2,0,74.7,33.4,74.7,74.7c0,25.5-20.7,46.2-46.2,46.2c-15.8,0-28.5-12.8-28.5-28.5c0-9.7,7.9-17.6,17.6-17.6
		c6,0,10.9,4.9,10.9,10.9c0,3.7-3,6.7-6.7,6.7c-2.3,0-4.2-1.9-4.2-4.2"/>
	<path class="st10" d="M0,0c0,174.8,141.7,316.4,316.4,316.4c108,0,195.6-87.6,195.6-195.6C512,54.1,457.9,0,391.1,0
		c-41.2,0-74.7,33.4-74.7,74.7c0,25.5,20.7,46.2,46.2,46.2c15.8,0,28.5-12.8,28.5-28.5c0-9.7-7.9-17.6-17.6-17.6
		c-6,0-10.9,4.9-10.9,10.9c0,3.7,3,6.7,6.7,6.7c2.3,0,4.2-1.9,4.2-4.2"/>
	<path class="st10" d="M-0.2,512.1c174.8,0,316.4-141.7,316.4-316.4c0-108-87.6-195.6-195.6-195.6C54,0.1-0.1,54.2-0.1,120.9
		c0,41.2,33.4,74.7,74.7,74.7c25.5,0,46.2-20.7,46.2-46.2c0-15.8-12.8-28.5-28.5-28.5c-9.7,0-17.6,7.9-17.6,17.6
		c0,6,4.9,10.9,10.9,10.9c3.7,0,6.7-3,6.7-6.7c0-2.3-1.9-4.2-4.2-4.2"/>
	<path class="st10" d="M-0.2,0.1c174.8,0,316.4,141.7,316.4,316.4c0,108-87.6,195.6-195.6,195.6C54,512.1-0.1,458-0.1,391.2
		c0-41.2,33.4-74.7,74.7-74.7c25.5,0,46.2,20.7,46.2,46.2c0,15.8-12.8,28.5-28.5,28.5c-9.7,0-17.6-7.9-17.6-17.6
		c0-6,4.9-10.9,10.9-10.9c3.7,0,6.7,3,6.7,6.7c0,2.3-1.9,4.2-4.2,4.2"/>
	<path class="st10" d="M512.1,0.1c-174.8,0-316.4,141.7-316.4,316.4c0,108,87.6,195.6,195.6,195.6c66.7,0,120.9-54.1,120.9-120.9
		c0-41.2-33.4-74.7-74.7-74.7c-25.5,0-46.2,20.7-46.2,46.2c0,15.8,12.8,28.5,28.5,28.5c9.7,0,17.6-7.9,17.6-17.6
		c0-6-4.9-10.9-10.9-10.9c-3.7,0-6.7,3-6.7,6.7c0,2.3,1.9,4.2,4.2,4.2"/>
</g>
</svg>
